<?xml version="1.0" standalone="no"?>
<!DOCTYPE svg PUBLIC "-//W3C//DTD SVG 20010904//EN"
 "http://www.w3.org/TR/2001/REC-SVG-20010904/DTD/svg10.dtd">
<svg version="1.0" xmlns="http://www.w3.org/2000/svg"
 width="89.000000pt" height="61.000000pt" viewBox="0 0 89.000000 61.000000"
 preserveAspectRatio="xMidYMid meet">

<g transform="translate(0.000000,61.000000) scale(0.100000,-0.100000)"
fill="#000000" stroke="none">
<path d="M216 581 c-17 -18 -17 -20 2 -39 19 -19 19 -19 38 2 18 20 18 22 2
39 -22 21 -21 21 -42 -2z"/>
<path d="M300 431 c-103 -87 -126 -122 -87 -129 11 -2 55 28 115 80 53 46 102
87 109 91 7 4 55 -30 119 -83 100 -85 123 -98 131 -74 4 15 -6 25 -115 117
-135 115 -134 115 -272 -2z"/>
<path d="M663 491 c-17 -28 7 -48 36 -29 19 11 19 14 4 30 -20 23 -25 23 -40
-1z"/>
<path d="M240 153 c0 -79 4 -123 12 -131 8 -8 65 -12 189 -12 152 0 178 2 190
17 17 19 25 210 10 232 -5 8 -16 11 -25 8 -13 -5 -16 -24 -16 -107 l0 -100
-50 0 -50 0 0 86 c0 107 -8 124 -60 124 -52 0 -60 -17 -60 -124 l0 -86 -50 0
-49 0 -3 102 c-3 89 -5 103 -20 106 -16 3 -18 -8 -18 -115z"/>
</g>
</svg>
